# xmcd
#
# Track frame offsets: 
#        150
#        12886
#        26768
#        44349
#        68009
#        108489
#        136222
#        177485
#        232928
#        252240
#        278967
#
# Disc length: 4132 seconds
#
# Revision: 0
# Processed by: cddbd v1.4PL0 Copyright (c) Steve Scherf et al.
# Submitted via: ExactAudioCopy v0.90b4
#
DISCID=9310220b
DTITLE=Van Morrison - The Barbican - York CSP 9, disc 2
DYEAR=2000
DGENRE=Celtic
TTITLE0=Baby Please Don't Go
TTITLE1=Here Comes The Night
TTITLE2=Precious Time
TTITLE3=Georgia
TTITLE4=It's All In The Game > You Know What They're Writing About
TTITLE5=The Healing Game
TTITLE6=It's A Man's Man's Man's World
TTITLE7=Help Me > Be Bop A Lula
TTITLE8=Good Morning Little Schoolgirl
TTITLE9=It's All Over Now, Baby Blue
TTITLE10=Fast Train
EXTD=
EXTT0=
EXTT1=
EXTT2=
EXTT3=
EXTT4=
EXTT5=
EXTT6=
EXTT7=
EXTT8=
EXTT9=
EXTT10=
PLAYORDER=
